<?xml version="1.0" encoding="UTF-8"?>
<svg width="576px" height="142px" viewBox="0 0 576 142" version="1.1" xmlns="http://www.w3.org/2000/svg" xmlns:xlink="http://www.w3.org/1999/xlink">
    <title>Session Statuses</title>
    <defs>
        <path d="M7.24,11.4892 C7.24,12.4512 8.022,13.2352 8.986,13.2352 L8.986,13.2352 C9.949,13.2352 10.731,12.4512 10.731,11.4892 L10.731,11.4892 C10.731,10.5262 9.949,9.7422 8.986,9.7422 L8.986,9.7422 C8.022,9.7422 7.24,10.5262 7.24,11.4892 L7.24,11.4892 Z" id="path-1"></path>
    </defs>
    <g id="Session-Statuses" stroke="none" stroke-width="1" fill="none" fill-rule="evenodd">
        <rect fill="#FFFFFF" x="0" y="0" width="576" height="142"></rect>
        <circle id="Oval" fill="#03AA8C" opacity="0.1" cx="289.5" cy="57.5" r="23.5"></circle>
        <circle id="Oval-Copy" fill="#67369A" opacity="0.1" cx="28.5" cy="57.5" r="23.5"></circle>
        <g id="Elements-/-Icons-/-Status-/-Pending-Validation" transform="translate(16.000000, 45.000000)" fill="#67369A">
            <path d="M12,3 C7.03786517,3 3,7.03763833 3,12.0005056 C3,16.9633728 7.03786517,21 12,21 C16.9621348,21 21,16.9633728 21,12.0005056 C21,7.03763833 16.9621348,3 12,3 M1,12.0005046 C1,5.93463603 5.93486239,1 12,1 C18.0651376,1 23,5.93463603 23,12.0005046 C23,18.0663731 18.0651376,23 12,23 C5.93486239,23 1,18.0663731 1,12.0005046 Z" id="Fill-1"></path>
            <path d="M15.286,13.295 L11,13.295 L11,13.295 L11,7 C11,6.44771525 11.4477153,6 12,6 C12.5522847,6 13,6.44771525 13,7 L13,11.295 L13,11.295 L15.286,11.295 C15.8382847,11.295 16.286,11.7427153 16.286,12.295 C16.286,12.8472847 15.8382847,13.295 15.286,13.295 Z" id="Fill-4"></path>
        </g>
        <text id="Pending-Validation" font-family="OpenSans-Regular, Open Sans" font-size="12" font-weight="normal" fill="#505050">
            <tspan x="5.17480469" y="104">Pending</tspan>
            <tspan x="0.220703125" y="121">Validation</tspan>
        </text>
        <circle id="Oval-Copy-4" fill="#03AA8C" opacity="0.1" cx="376.5" cy="57.5" r="23.5"></circle>
        <circle id="Oval-Copy-2" fill="#FF9A02" opacity="0.1" cx="202.5" cy="57.5" r="23.5"></circle>
        <circle id="Oval-Copy-5" fill="#939393" opacity="0.1" cx="463.5" cy="57.5" r="23.5"></circle>
        <circle id="Oval-Copy-6" fill="#ED5564" opacity="0.1" cx="550.5" cy="57.5" r="23.5"></circle>
        <circle id="Oval-Copy-3" fill="#67369A" opacity="0.1" cx="115.5" cy="57.5" r="23.5"></circle>
        <g id="Oval" transform="translate(103.000000, 45.000000)" fill="#67369A">
            <circle cx="12" cy="12" r="5"></circle>
        </g>
        <g id="Group" transform="translate(190.000000, 45.000000)">
            <g transform="translate(3.000000, 3.000000)">
                <path d="M2.61800411,15.9275 L15.3530041,15.9275 L8.98600411,3.1925 L2.61800411,15.9275 Z M16.9710041,17.9275 L1,17.9275 C0.653004109,17.9275 0.331004109,17.7475 0.149004109,17.4535 C-0.0329958913,17.1585 -0.0489958913,16.7905 0.105004109,16.4805 L8.09100411,0.5085 C8.43000411,-0.1695 9.54100411,-0.1695 9.88000411,0.5085 L17.8660041,16.4805 C18.0200041,16.7905 18.0040041,17.1585 17.8220041,17.4535 C17.6390041,17.7475 17.3180041,17.9275 16.9710041,17.9275 L16.9710041,17.9275 Z" id="Fill-1" fill="#FF9A02"></path>
                <mask id="mask-2" fill="white">
                    <use xlink:href="#path-1"></use>
                </mask>
                <use id="Clip-5" fill="#FF9A02" xlink:href="#path-1"></use>
            </g>
        </g>
        <g id="Fill-1" transform="translate(277.000000, 45.000000)" fill="#03AA8C">
            <path d="M19.997,12.0499427 C19.997,11.9177486 19.97,11.788514 19.918,11.6691447 C19.884,11.5892363 19.827,11.5231393 19.774,11.4560557 C19.748,11.4235004 19.734,11.3830529 19.704,11.3524707 L13.558,5.28929798 C13.167,4.90356734 12.534,4.90356734 12.144,5.28929798 C11.753,5.6740421 11.753,6.29851141 12.144,6.68424205 L16.583,11 L5,11 C4.447,11 4,11.4554391 4,12 C4,12.5455474 4.447,13 5,13 L16.583,13 L12.243,17.3160046 C11.853,17.7017352 11.853,18.3262045 12.243,18.7109486 C12.439,18.9043072 12.694,19 12.95,19 C13.206,19 13.462,18.9043072 13.657,18.7109486 L19.704,12.7474148 C19.735,12.7168326 19.749,12.6753986 19.776,12.6418568 C19.828,12.5757597 19.885,12.5106492 19.918,12.4317273 C19.97,12.312358 19.997,12.1831234 19.997,12.0499427 Z" transform="translate(11.998500, 12.000000) rotate(-360.000000) translate(-11.998500, -12.000000) "></path>
        </g>
        <g id="Elements-/-Icons-/-Status-/-Cancelled" transform="translate(365.000000, 45.000000)" fill="#03AA8C">
            <path d="M9.62625,17.5530692 C9.36125,17.5530692 9.10625,17.4480692 8.91925,17.2600692 L4.29325,12.6330692 C3.90225,12.2420692 3.90225,11.6090692 4.29325,11.2190692 C4.68425,10.8280692 5.31625,10.8280692 5.70725,11.2190692 L9.61825,15.1310692 L18.24525,6.30106923 C18.63025,5.90606923 19.26425,5.89906923 19.65925,6.28406923 C20.05425,6.67006923 20.06125,7.30306923 19.67525,7.69806923 L10.34125,17.2520692 C10.15425,17.4430692 9.89925,17.5520692 9.63225,17.5530692 L9.62625,17.5530692 Z" id="Fill-1"></path>
        </g>
        <g id="Group" transform="translate(452.000000, 45.000000)" fill="#939393" fill-rule="nonzero">
            <g id="Elements-/-Icons-/-Status-/REady-To-Submit">
                <path d="M6.92125004,5.50725004 L12.0070969,10.592401 L17.0925544,5.5075 C17.453225,5.14682945 18.0207496,5.11908556 18.4132439,5.42426833 L18.5075,5.5075 L18.5075,5.5075 L18.5907756,5.6018133 C18.8959165,5.99431594 18.86813,6.56181664 18.5074456,6.92244557 L18.5074456,6.92244557 L13.4210969,12.007401 L18.5079998,17.0939998 C18.5081664,17.0941664 18.5083329,17.094333 18.5084993,17.0944996 C18.8984126,17.4849649 18.8979652,18.1175867 18.5075,18.5075 C18.1166732,18.8977744 17.4835383,18.8975627 17.0929726,18.507027 L12.0070969,13.421401 L6.92080441,18.5073043 C6.56042915,18.8676241 5.99344645,18.8954157 5.60120046,18.5906262 L5.507,18.5075 C5.50692572,18.5074258 5.50685146,18.5073515 5.50677721,18.5072773 L5.42365316,18.4131504 C5.11886318,18.0211924 5.14654819,17.4544251 5.50672286,17.0942228 L5.50672286,17.0942228 L10.5930969,12.007401 L5.50727725,6.92222284 C5.11662277,6.53159842 5.11649866,5.89827751 5.507,5.5075 L5.50724987,5.50725004 C5.89771523,5.11678468 6.53078468,5.11678468 6.92125004,5.50725004 Z" id="Fill-3"></path>
            </g>
        </g>
        <g id="Group" transform="translate(539.000000, 45.000000)" fill="#ED5564" fill-rule="nonzero">
            <g id="Fill-3">
                <path d="M6.92125004,5.50725004 L12.0070969,10.592401 L17.0925544,5.5075 C17.453225,5.14682945 18.0207496,5.11908556 18.4132439,5.42426833 L18.5075,5.5075 L18.5075,5.5075 L18.5907756,5.6018133 C18.8959165,5.99431594 18.86813,6.56181664 18.5074456,6.92244557 L18.5074456,6.92244557 L13.4210969,12.007401 L18.5079998,17.0939998 C18.5081664,17.0941664 18.5083329,17.094333 18.5084993,17.0944996 C18.8984126,17.4849649 18.8979652,18.1175867 18.5075,18.5075 C18.1166732,18.8977744 17.4835383,18.8975627 17.0929726,18.507027 L12.0070969,13.421401 L6.92080441,18.5073043 C6.56042915,18.8676241 5.99344645,18.8954157 5.60120046,18.5906262 L5.507,18.5075 C5.50692572,18.5074258 5.50685146,18.5073515 5.50677721,18.5072773 L5.42365316,18.4131504 C5.11886318,18.0211924 5.14654819,17.4544251 5.50672286,17.0942228 L5.50672286,17.0942228 L10.5930969,12.007401 L5.50727725,6.92222284 C5.11662277,6.53159842 5.11649866,5.89827751 5.507,5.5075 L5.50724987,5.50725004 C5.89771523,5.11678468 6.53078468,5.11678468 6.92125004,5.50725004 Z"></path>
            </g>
        </g>
        <text id="Scheduled" font-family="OpenSans-Regular, Open Sans" font-size="12" font-weight="normal" fill="#505050">
            <tspan x="85.8818359" y="104">Scheduled</tspan>
        </text>
        <text id="Incomplete" font-family="OpenSans-Regular, Open Sans" font-size="12" font-weight="normal" fill="#505050">
            <tspan x="171.538086" y="104">Incomplete</tspan>
        </text>
        <text id="Ready-to-Submit" font-family="OpenSans-Regular, Open Sans" font-size="12" font-weight="normal" fill="#505050">
            <tspan x="271.887695" y="104">Ready</tspan>
            <tspan x="261.830078" y="121">to Submit</tspan>
        </text>
        <text id="Submitted" font-family="OpenSans-Regular, Open Sans" font-size="12" font-weight="normal" fill="#505050">
            <tspan x="347.969727" y="104">Submitted</tspan>
        </text>
        <text id="Cancelled" font-family="OpenSans-Regular, Open Sans" font-size="12" font-weight="normal" fill="#505050">
            <tspan x="436.894531" y="104">Cancelled</tspan>
        </text>
        <text id="Declined" font-family="OpenSans-Regular, Open Sans" font-size="12" font-weight="normal" fill="#505050">
            <tspan x="526.642578" y="104">Declined</tspan>
        </text>
    </g>
</svg>